<svg width="147" height="119" viewBox="0 0 147 119" fill="none" xmlns="http://www.w3.org/2000/svg">
<path d="M14.7789 79.846L40.271 79.846L27.5249 117.846L14.7789 79.846Z" fill="#5D2D7D"/>
<path d="M28.1453 39.9422L53.6373 39.9422L40.8913 77.9419L28.1453 39.9422Z" fill="#E86E67"/>
<path d="M27.4544 39.8392L40.2005 77.8389H14.7084L27.4544 39.8392Z" fill="#E97855"/>
<path d="M27.4544 39.8392L40.2005 77.8389H14.7084L27.4544 39.8392Z" fill="#E97855"/>
<path d="M41.051 0.999874L66.543 0.999844L53.797 38.9996L41.051 0.999874Z" fill="#4E256B"/>
<path d="M40.2099 0.943266L52.9559 38.943H27.4639L40.2099 0.943266Z" fill="#5D2D7D"/>
<path d="M54.3829 39.9422L79.8749 39.9422L67.1289 77.9419L54.3829 39.9422Z" fill="#DEC1B1"/>
<path d="M67.1915 0.749998L79.9376 38.7497H54.4455L67.1915 0.749998Z" fill="#D12156"/>
<path d="M80.5579 40.1731L93.3039 78.1728L67.8119 78.1728L80.5579 40.1731Z" fill="#E97855"/>
<path d="M93.9242 79.5962L106.67 117.596H81.1782L93.9242 79.5962Z" fill="#5D2D7D"/>
<path d="M94.4819 79.3653L119.974 79.3652L107.228 117.365L94.4819 79.3653Z" fill="#D12157"/>
<path d="M107.848 39.9422L133.34 39.9422L120.594 77.9419L107.848 39.9422Z" fill="#DEC1B1"/>
<path d="M121.215 0.519102L146.707 0.519073L133.961 38.5188L121.215 0.519102Z" fill="#5D2D7D"/>
<path d="M120.162 0.749998L132.908 38.7497H107.416L120.162 0.749998Z" fill="#4E256B"/>
<path d="M67.7492 79.3653L93.2413 79.3652L80.4952 117.365L67.7492 79.3653Z" fill="#5D2D7D"/>
<path d="M106.796 39.6923L119.542 77.692H94.0495L106.796 39.6923Z" fill="#E86E67"/>
<path d="M13.7178 80.3204L26.4638 118.32H0.971817L13.7178 80.3204Z" fill="#5D2D7D"/>
<path d="M27.246 40L39.992 77.9997H14.5L27.246 40Z" fill="#E97855"/>
</svg>
